<svg version="1.2" xmlns="http://www.w3.org/2000/svg" viewBox="0 0 500 500" penrose="0"><penrose><croppedViewBox>306.8477632079078 232.88829956946697 143.22742569339295 229.9329141174907</croppedViewBox></penrose><g transform="rotate(0, 442.57518890130075, 455.6612136869577)translate(435.07518890130075, 448.50121368695767)"><title>`A`.text</title><svg style="font-size: 20px" xmlns="http://www.w3.org/2000/svg" width="15" height="14.32" role="img" focusable="false" viewBox="0 -716 750 716"><g stroke="none" fill="#000000" stroke-width="0" transform="scale(1,-1)" fill-opacity="1"><g data-mml-node="math"><g data-mml-node="mi"><path data-c="1D434" d="M208 74Q208 50 254 46Q272 46 272 35Q272 34 270 22Q267 8 264 4T251 0Q249 0 239 0T205 1T141 2Q70 2 50 0H42Q35 7 35 11Q37 38 48 46H62Q132 49 164 96Q170 102 345 401T523 704Q530 716 547 716H555H572Q578 707 578 706L606 383Q634 60 636 57Q641 46 701 46Q726 46 726 36Q726 34 723 22Q720 7 718 4T704 0Q701 0 690 0T651 1T578 2Q484 2 455 0H443Q437 6 437 9T439 27Q443 40 445 43L449 46H469Q523 49 533 63L521 213H283L249 155Q208 86 208 74ZM516 260Q516 271 504 416T490 562L463 519Q447 492 400 412L310 260L413 259Q516 259 516 260Z"></path></g></g></g></svg></g><g transform="rotate(0, 317.8556017291297, 239.71829956946695)translate(310.26560172912974, 232.88829956946694)"><title>`B`.text</title><svg style="font-size: 20px" xmlns="http://www.w3.org/2000/svg" width="15.18" height="13.66" role="img" focusable="false" viewBox="0 -683 759 683"><g stroke="none" fill="#000000" stroke-width="0" transform="scale(1,-1)" fill-opacity="1"><g data-mml-node="math"><g data-mml-node="mi"><path data-c="1D435" d="M231 637Q204 637 199 638T194 649Q194 676 205 682Q206 683 335 683Q594 683 608 681Q671 671 713 636T756 544Q756 480 698 429T565 360L555 357Q619 348 660 311T702 219Q702 146 630 78T453 1Q446 0 242 0Q42 0 39 2Q35 5 35 10Q35 17 37 24Q42 43 47 45Q51 46 62 46H68Q95 46 128 49Q142 52 147 61Q150 65 219 339T288 628Q288 635 231 637ZM649 544Q649 574 634 600T585 634Q578 636 493 637Q473 637 451 637T416 636H403Q388 635 384 626Q382 622 352 506Q352 503 351 500L320 374H401Q482 374 494 376Q554 386 601 434T649 544ZM595 229Q595 273 572 302T512 336Q506 337 429 337Q311 337 310 336Q310 334 293 263T258 122L240 52Q240 48 252 48T333 46Q422 46 429 47Q491 54 543 105T595 229Z"></path></g></g></g></svg></g><g transform="rotate(0, 314.44776320790777, 409.9802647025146)translate(306.84776320790775, 402.7102647025146)"><title>`C`.text</title><svg style="font-size: 20px" xmlns="http://www.w3.org/2000/svg" width="15.2" height="14.54" role="img" focusable="false" viewBox="0 -705 760 727"><g stroke="none" fill="#000000" stroke-width="0" transform="scale(1,-1)" fill-opacity="1"><g data-mml-node="math"><g data-mml-node="mi"><path data-c="1D436" d="M50 252Q50 367 117 473T286 641T490 704Q580 704 633 653Q642 643 648 636T656 626L657 623Q660 623 684 649Q691 655 699 663T715 679T725 690L740 705H746Q760 705 760 698Q760 694 728 561Q692 422 692 421Q690 416 687 415T669 413H653Q647 419 647 422Q647 423 648 429T650 449T651 481Q651 552 619 605T510 659Q484 659 454 652T382 628T299 572T226 479Q194 422 175 346T156 222Q156 108 232 58Q280 24 350 24Q441 24 512 92T606 240Q610 253 612 255T628 257Q648 257 648 248Q648 243 647 239Q618 132 523 55T319 -22Q206 -22 128 53T50 252Z"></path></g></g></g></svg></g><g><filter id="`triangleABC`.icon-shadow" x="0" y="0" width="200%" height="200%">
    <feOffset result="offOut" in="SourceAlpha" dx="5" dy="5"></feOffset>
       <feGaussianBlur result="blurOut" in="offOut" stdDeviation="4"></feGaussianBlur>
       <feBlend in="SourceGraphic" in2="blurOut" mode="normal"></feBlend>
       <feComponentTransfer>
         <feFuncA type="linear" slope="0.5"></feFuncA>
       </feComponentTransfer>
       <feMerge>
         <feMergeNode></feMergeNode>
         <feMergeNode in="SourceGraphic"></feMergeNode>
       </feMerge>
    </filter><path fill="none" stroke="none" d="M 422.2565826403753 442.87241334629147 L 316.089625998313 260.54830074986063 L 342.00591036345804 402.7107406743301 Z "></path><title>`triangleABC`.icon</title></g><g style="solid"><line x1="422.2565826403753" y1="442.87241334629147" x2="316.089625998313" y2="260.54830074986063" stroke="#000000" stroke-opacity="1" stroke-width="1.75"></line><title>`triangleABC`.PQ</title></g><g style="solid"><line x1="342.00591036345804" y1="402.7107406743301" x2="422.2565826403753" y2="442.87241334629147" stroke="#000000" stroke-opacity="1" stroke-width="1.75"></line><title>`triangleABC`.RP</title></g><circle fill="#000000" fill-opacity="1" cx="422.2565826403753" cy="442.87241334629147" stroke="#000000" stroke-opacity="1" stroke-width="0" r="4"><title>`A`.icon</title></circle><g style="solid"><line x1="316.089625998313" y1="260.54830074986063" x2="342.00591036345804" y2="402.7107406743301" stroke="#000000" stroke-opacity="1" stroke-width="1.75"></line><title>`triangleABC`.QR</title></g><circle fill="#000000" fill-opacity="1" cx="316.089625998313" cy="260.54830074986063" stroke="#000000" stroke-opacity="1" stroke-width="0" r="4"><title>`B`.icon</title></circle><circle fill="#000000" fill-opacity="1" cx="342.00591036345804" cy="402.7107406743301" stroke="#000000" stroke-opacity="1" stroke-width="0" r="4"><title>`C`.icon</title></circle></svg>