<svg version="1.2" xmlns="http://www.w3.org/2000/svg" viewBox="0 0 500 500" penrose="0"><penrose><croppedViewBox>124.58867517018987 85.74327560789408 375.1985802549041 407.64292356103067</croppedViewBox></penrose><g style="solid"><line x1="378.5983869314333" y1="264.8060928065491" x2="150.38701819477757" y2="167.34920957658989" stroke="#000000" stroke-opacity="1" stroke-width="1.75"></line><title>`angleADM`.side1</title></g><g style="solid"><line x1="378.5983869314333" y1="264.8060928065491" x2="242.70882720905408" y2="467.1637782905101" stroke="#000000" stroke-opacity="1" stroke-width="1.75"></line><title>`segmentAB`.icon</title></g><circle fill="#000000" fill-opacity="1" cx="378.5983869314333" cy="264.8060928065491" stroke="#000000" stroke-opacity="1" stroke-width="0" r="4"><title>`A`.icon</title></circle><g style="solid"><line x1="150.38701819477757" y1="167.34920957658989" x2="310.6536070702437" y2="365.9849355485296" stroke="#000000" stroke-opacity="1" stroke-width="1.75"></line><title>`angleADM`.side2</title></g><g style="solid"><line x1="150.38701819477757" y1="167.34920957658989" x2="310.6536070702437" y2="365.9849355485296" stroke="#000000" stroke-opacity="1" stroke-width="1.75"></line><title>`angleDME`.side1</title></g><g style="solid"><line x1="150.38701819477757" y1="167.34920957658989" x2="468.1071591570335" y2="238.94563706235374" stroke="#000000" stroke-opacity="1" stroke-width="1.75"></line><title>`segmentDE`.icon</title></g><circle fill="#000000" fill-opacity="1" cx="150.38701819477757" cy="167.34920957658989" stroke="#000000" stroke-opacity="1" stroke-width="0" r="4"><title>`D`.icon</title></circle><g style="solid"><line x1="310.6536070702437" y1="365.9849355485296" x2="468.1071591570335" y2="238.94563706235374" stroke="#000000" stroke-opacity="1" stroke-width="1.75"></line><title>`angleDME`.side2</title></g><circle fill="#000000" fill-opacity="1" cx="310.6536070702437" cy="365.9849355485296" stroke="#000000" stroke-opacity="1" stroke-width="0" r="4"><title>`M`.icon</title></circle><g transform="rotate(0, 357.1413678775784, 256.54979175604655)translate(349.6413678775784, 249.38979175604655)"><title>`A`.text</title><svg style="font-size: 20px" xmlns="http://www.w3.org/2000/svg" width="15" height="14.32" role="img" focusable="false" viewBox="0 -716 750 716"><g stroke="none" fill="#000000" stroke-width="0" transform="scale(1,-1)" fill-opacity="1"><g data-mml-node="math"><g data-mml-node="mi"><path data-c="1D434" d="M208 74Q208 50 254 46Q272 46 272 35Q272 34 270 22Q267 8 264 4T251 0Q249 0 239 0T205 1T141 2Q70 2 50 0H42Q35 7 35 11Q37 38 48 46H62Q132 49 164 96Q170 102 345 401T523 704Q530 716 547 716H555H572Q578 707 578 706L606 383Q634 60 636 57Q641 46 701 46Q726 46 726 36Q726 34 723 22Q720 7 718 4T704 0Q701 0 690 0T651 1T578 2Q484 2 455 0H443Q437 6 437 9T439 27Q443 40 445 43L449 46H469Q523 49 533 63L521 213H283L249 155Q208 86 208 74ZM516 260Q516 271 504 416T490 562L463 519Q447 492 400 412L310 260L413 259Q516 259 516 260Z"></path></g></g></g></svg></g><g transform="rotate(0, 228.93936581553476, 486.55619916892476)translate(221.34936581553475, 479.7261991689248)"><title>`B`.text</title><svg style="font-size: 20px" xmlns="http://www.w3.org/2000/svg" width="15.18" height="13.66" role="img" focusable="false" viewBox="0 -683 759 683"><g stroke="none" fill="#000000" stroke-width="0" transform="scale(1,-1)" fill-opacity="1"><g data-mml-node="math"><g data-mml-node="mi"><path data-c="1D435" d="M231 637Q204 637 199 638T194 649Q194 676 205 682Q206 683 335 683Q594 683 608 681Q671 671 713 636T756 544Q756 480 698 429T565 360L555 357Q619 348 660 311T702 219Q702 146 630 78T453 1Q446 0 242 0Q42 0 39 2Q35 5 35 10Q35 17 37 24Q42 43 47 45Q51 46 62 46H68Q95 46 128 49Q142 52 147 61Q150 65 219 339T288 628Q288 635 231 637ZM649 544Q649 574 634 600T585 634Q578 636 493 637Q473 637 451 637T416 636H403Q388 635 384 626Q382 622 352 506Q352 503 351 500L320 374H401Q482 374 494 376Q554 386 601 434T649 544ZM595 229Q595 273 572 302T512 336Q506 337 429 337Q311 337 310 336Q310 334 293 263T258 122L240 52Q240 48 252 48T333 46Q422 46 429 47Q491 54 543 105T595 229Z"></path></g></g></g></svg></g><g transform="rotate(0, 223.69262615080893, 93.01327560789406)translate(216.09262615080894, 85.74327560789406)"><title>`C`.text</title><svg style="font-size: 20px" xmlns="http://www.w3.org/2000/svg" width="15.2" height="14.54" role="img" focusable="false" viewBox="0 -705 760 727"><g stroke="none" fill="#000000" stroke-width="0" transform="scale(1,-1)" fill-opacity="1"><g data-mml-node="math"><g data-mml-node="mi"><path data-c="1D436" d="M50 252Q50 367 117 473T286 641T490 704Q580 704 633 653Q642 643 648 636T656 626L657 623Q660 623 684 649Q691 655 699 663T715 679T725 690L740 705H746Q760 705 760 698Q760 694 728 561Q692 422 692 421Q690 416 687 415T669 413H653Q647 419 647 422Q647 423 648 429T650 449T651 481Q651 552 619 605T510 659Q484 659 454 652T382 628T299 572T226 479Q194 422 175 346T156 222Q156 108 232 58Q280 24 350 24Q441 24 512 92T606 240Q610 253 612 255T628 257Q648 257 648 248Q648 243 647 239Q618 132 523 55T319 -22Q206 -22 128 53T50 252Z"></path></g></g></g></svg></g><g transform="rotate(0, 286.14362330892624, 370.4497954940689)translate(275.63362330892625, 363.6197954940689)"><title>`M`.text</title><svg style="font-size: 20px" xmlns="http://www.w3.org/2000/svg" width="21.02" height="13.66" role="img" focusable="false" viewBox="0 -683 1051 683"><g stroke="none" fill="#000000" stroke-width="0" transform="scale(1,-1)" fill-opacity="1"><g data-mml-node="math"><g data-mml-node="mi"><path data-c="1D440" d="M289 629Q289 635 232 637Q208 637 201 638T194 648Q194 649 196 659Q197 662 198 666T199 671T201 676T203 679T207 681T212 683T220 683T232 684Q238 684 262 684T307 683Q386 683 398 683T414 678Q415 674 451 396L487 117L510 154Q534 190 574 254T662 394Q837 673 839 675Q840 676 842 678T846 681L852 683H948Q965 683 988 683T1017 684Q1051 684 1051 673Q1051 668 1048 656T1045 643Q1041 637 1008 637Q968 636 957 634T939 623Q936 618 867 340T797 59Q797 55 798 54T805 50T822 48T855 46H886Q892 37 892 35Q892 19 885 5Q880 0 869 0Q864 0 828 1T736 2Q675 2 644 2T609 1Q592 1 592 11Q592 13 594 25Q598 41 602 43T625 46Q652 46 685 49Q699 52 704 61Q706 65 742 207T813 490T848 631L654 322Q458 10 453 5Q451 4 449 3Q444 0 433 0Q418 0 415 7Q413 11 374 317L335 624L267 354Q200 88 200 79Q206 46 272 46H282Q288 41 289 37T286 19Q282 3 278 1Q274 0 267 0Q265 0 255 0T221 1T157 2Q127 2 95 1T58 0Q43 0 39 2T35 11Q35 13 38 25T43 40Q45 46 65 46Q135 46 154 86Q158 92 223 354T289 629Z"></path></g></g></g></svg></g><g transform="rotate(0, 172.66700761572127, 163.6739273010918)translate(164.38700761572127, 156.84392730109178)"><title>`D`.text</title><svg style="font-size: 20px" xmlns="http://www.w3.org/2000/svg" width="16.56" height="13.66" role="img" focusable="false" viewBox="0 -683 828 683"><g stroke="none" fill="#000000" stroke-width="0" transform="scale(1,-1)" fill-opacity="1"><g data-mml-node="math"><g data-mml-node="mi"><path data-c="1D437" d="M287 628Q287 635 230 637Q207 637 200 638T193 647Q193 655 197 667T204 682Q206 683 403 683Q570 682 590 682T630 676Q702 659 752 597T803 431Q803 275 696 151T444 3L430 1L236 0H125H72Q48 0 41 2T33 11Q33 13 36 25Q40 41 44 43T67 46Q94 46 127 49Q141 52 146 61Q149 65 218 339T287 628ZM703 469Q703 507 692 537T666 584T629 613T590 629T555 636Q553 636 541 636T512 636T479 637H436Q392 637 386 627Q384 623 313 339T242 52Q242 48 253 48T330 47Q335 47 349 47T373 46Q499 46 581 128Q617 164 640 212T683 339T703 469Z"></path></g></g></g></svg></g><circle fill="#000000" fill-opacity="1" cx="468.1071591570335" cy="238.94563706235374" stroke="#000000" stroke-opacity="1" stroke-width="0" r="4"><title>`E`.icon</title></circle><g transform="rotate(0, 446.4671743472102, 242.5910758127407)translate(438.8271743472102, 235.7910758127407)"><title>`E`.text</title><svg style="font-size: 20px" xmlns="http://www.w3.org/2000/svg" width="15.280000000000001" height="13.600000000000001" role="img" focusable="false" viewBox="0 -680 764 680"><g stroke="none" fill="#000000" stroke-width="0" transform="scale(1,-1)" fill-opacity="1"><g data-mml-node="math"><g data-mml-node="mi"><path data-c="1D438" d="M492 213Q472 213 472 226Q472 230 477 250T482 285Q482 316 461 323T364 330H312Q311 328 277 192T243 52Q243 48 254 48T334 46Q428 46 458 48T518 61Q567 77 599 117T670 248Q680 270 683 272Q690 274 698 274Q718 274 718 261Q613 7 608 2Q605 0 322 0H133Q31 0 31 11Q31 13 34 25Q38 41 42 43T65 46Q92 46 125 49Q139 52 144 61Q146 66 215 342T285 622Q285 629 281 629Q273 632 228 634H197Q191 640 191 642T193 659Q197 676 203 680H757Q764 676 764 669Q764 664 751 557T737 447Q735 440 717 440H705Q698 445 698 453L701 476Q704 500 704 528Q704 558 697 578T678 609T643 625T596 632T532 634H485Q397 633 392 631Q388 629 386 622Q385 619 355 499T324 377Q347 376 372 376H398Q464 376 489 391T534 472Q538 488 540 490T557 493Q562 493 565 493T570 492T572 491T574 487T577 483L544 351Q511 218 508 216Q505 213 492 213Z"></path></g></g></g></svg></g><g style="solid"><marker id="roger-something-`lineDM`.icon-startArrowId" markerUnits="strokeWidth" markerWidth="6.47" markerHeight="5.28" viewBox="0 0 9.95 8.12" refX="2.36" refY="4.06" orient="auto-start-reverse"><path d="M9.95 4.06 0 8.12 2.36 4.06 0 0 9.95 4.06z" fill="#000000" fill-opacity="1"></path></marker><marker id="roger-something-`lineDM`.icon-endArrowId" markerUnits="strokeWidth" markerWidth="6.47" markerHeight="5.28" viewBox="0 0 9.95 8.12" refX="2.36" refY="4.06" orient="auto-start-reverse"><path d="M9.95 4.06 0 8.12 2.36 4.06 0 0 9.95 4.06z" fill="#000000" fill-opacity="1"></path></marker><line x1="130.69100525369703" y1="142.93780944162913" x2="330.3496137319843" y2="390.3963279008249" stroke="#000000" stroke-opacity="1" stroke-width="1.75" marker-start="url(#roger-something-`lineDM`.icon-startArrowId)" marker-end="url(#roger-something-`lineDM`.icon-endArrowId)"></line><title>`lineDM`.icon</title></g><circle fill="#000000" fill-opacity="1" cx="242.70882720905408" cy="467.1637782905101" stroke="#000000" stroke-opacity="1" stroke-width="0" r="4"><title>`B`.icon</title></circle><g style="solid"><marker id="roger-something-`lineME`.icon-startArrowId" markerUnits="strokeWidth" markerWidth="6.47" markerHeight="5.28" viewBox="0 0 9.95 8.12" refX="2.36" refY="4.06" orient="auto-start-reverse"><path d="M9.95 4.06 0 8.12 2.36 4.06 0 0 9.95 4.06z" fill="#000000" fill-opacity="1"></path></marker><marker id="roger-something-`lineME`.icon-endArrowId" markerUnits="strokeWidth" markerWidth="6.47" markerHeight="5.28" viewBox="0 0 9.95 8.12" refX="2.36" refY="4.06" orient="auto-start-reverse"><path d="M9.95 4.06 0 8.12 2.36 4.06 0 0 9.95 4.06z" fill="#000000" fill-opacity="1"></path></marker><line x1="286.24220709504783" y1="385.6809480348336" x2="492.5185513495639" y2="219.2496308553895" stroke="#000000" stroke-opacity="1" stroke-width="1.75" marker-start="url(#roger-something-`lineME`.icon-startArrowId)" marker-end="url(#roger-something-`lineME`.icon-endArrowId)"></line><title>`lineME`.icon</title></g><circle fill="#000000" fill-opacity="1" cx="209.34638716721716" cy="112.55065924974792" stroke="#000000" stroke-opacity="1" stroke-width="0" r="4"><title>`C`.icon</title></circle></svg>